<svg id="Layer_1" data-name="Layer 1" xmlns="http://www.w3.org/2000/svg" viewBox="0 0 2000 2000"><defs><style>.cls-1{fill:#883089;}.cls-2{fill:#7bb629;}</style></defs><ellipse class="cls-1" cx="1078.88" cy="883.32" rx="34.01" ry="34.59"/><ellipse class="cls-1" cx="1159.87" cy="883.32" rx="34.01" ry="34.59"/><ellipse class="cls-1" cx="1263.45" cy="1408.64" rx="34.01" ry="34.59"/><path class="cls-2" d="M756.73,844.21A48.59,48.59,0,0,1,709.88,881H453.68a48.59,48.59,0,0,1-46.85-36.74L333.1,558.91a.32.32,0,0,0-.31-.23H226.69a.31.31,0,0,0-.32.31v66.6a.31.31,0,0,0,.32.31h55.13a.32.32,0,0,1,.3.24L342.9,861.3c13.23,51.19,58.73,86.88,110.78,86.88h256.2c52,0,97.55-35.69,110.78-86.88l60.78-235.16a.32.32,0,0,1,.3-.24h55.14a.31.31,0,0,0,.31-.31V559a.31.31,0,0,0-.31-.31H830.77a.3.3,0,0,0-.3.23Z"/><path class="cls-2" d="M581.78,432c75.5,0,137,56.8,137.13,126.67a.32.32,0,0,0,.31.31h30.85a.32.32,0,0,0,.32-.33C750.2,471.14,674.64,400,581.78,400S413.36,471.14,413.17,558.66a.32.32,0,0,0,.32.33h30.85a.31.31,0,0,0,.31-.31C444.83,488.81,506.27,432,581.78,432Z"/><path class="cls-2" d="M1710.67,957.94v258.23c0,31.26-20.41,60-50.46,66.53-41.87,9.14-79-23.24-79-64.26V957.94a.31.31,0,0,0-.31-.32h-62.34a.31.31,0,0,0-.31.32v258.23c0,31.25-20.4,60-50.45,66.52-41.88,9.16-79-23.22-79-64.25V957.62h-64.7v258.55c0,31.25-20.4,60-50.45,66.52-41.87,9.16-79-23.22-79-64.25V957.62H1130v258.54c0,31.26-20.39,60-50.44,66.53-41.88,9.16-79-23.22-79-64.25V957.94a.32.32,0,0,0-.32-.32H938a.31.31,0,0,0-.31.32v257c0,64.32,44.54,121.64,107,131.68,46.85,7.52,90-11.1,117.5-43.71a.29.29,0,0,1,.45,0c23.43,27.75,58.14,45.37,96.84,45.37s73.4-17.62,96.84-45.36a.27.27,0,0,1,.44,0c23.44,27.74,58.15,45.36,96.84,45.36,38.23,0,72.56-17.2,96-44.35a.28.28,0,0,1,.44,0c24.22,28.08,60.11,45.51,99.91,44.29,69.68-2.15,123.74-63.16,123.74-134V957.94a.32.32,0,0,0-.32-.32H1711A.31.31,0,0,0,1710.67,957.94Z"/><path class="cls-2" d="M1097.36,1475.16c-22.5,2.09-38.95,22.77-38.95,45.74v78.78a.31.31,0,0,0,.31.32h20.57a.32.32,0,0,0,.32-.32v-79.43c0-11.74,8.27-22.58,19.77-23.64a22,22,0,0,1,23.79,22.07v81a.31.31,0,0,0,.31.32h20.57a.32.32,0,0,0,.32-.32v-81C1144.37,1493.22,1122.86,1472.78,1097.36,1475.16Z"/><path class="cls-2" d="M1231,1475h-35.64v-.2h-20.88a.32.32,0,0,0-.31.32v124.59a.31.31,0,0,0,.31.32H1195a.31.31,0,0,0,.31-.32v-37a.32.32,0,0,1,.32-.32h37.51c25,0,45.12-21.87,42.79-47.8C1273.88,1491.7,1253.55,1475,1231,1475Zm.64,65.86h-36a.32.32,0,0,1-.32-.32v-43.67a.32.32,0,0,1,.32-.32h37.51a22,22,0,0,1,21.69,24.21C1253.8,1532.42,1243.14,1540.83,1231.6,1540.83Z"/><path class="cls-2" d="M1351,1474.77h-21.2v.2h-38.22a.32.32,0,0,0-.32.32v20.91a.32.32,0,0,0,.32.32h37.91a.31.31,0,0,1,.31.32v102.84a.32.32,0,0,0,.32.32h20.57a.31.31,0,0,0,.31-.32V1496.84a.31.31,0,0,1,.31-.32h37.92a.31.31,0,0,0,.31-.32v-20.91a.31.31,0,0,0-.31-.32H1351Z"/><path class="cls-2" d="M996.57,1526H974.16a15.54,15.54,0,0,1,0-31.08h58.49a.31.31,0,0,0,.32-.31v-19.84a.32.32,0,0,0-.32-.32H975.17c-15.48,0-30.07,9.54-34.67,24.57-7.56,24.69,10.48,47.45,33.66,47.45h23.41a15.54,15.54,0,0,1,0,31.07H938.49a.32.32,0,0,0-.32.32v19.84a.32.32,0,0,0,.32.32h59.08c23.17,0,41.22-22.76,33.66-47.45C1026.64,1535.52,1012,1526,996.57,1526Z"/></svg>